<svg width="512" height="512" viewBox="0 0 512 512" fill="none" xmlns="http://www.w3.org/2000/svg">
<g opacity="0.75">
<path d="M261.02 496L0 336V306L261.02 156L512 306V336L261.02 496Z" fill="#4C6EF5"/>
<path d="M261.02 496L0 336V306L261.02 461L512 306V336L261.02 496Z" fill="#1A2861"/>
</g>
<path d="M261.02 426L0 266V236L261.02 86L512 236V266L261.02 426Z" fill="#4C6EF5"/>
<path d="M261.02 426L0 266V236L261.02 391L512 236V266L261.02 426Z" fill="#1A2861"/>
<g opacity="0.75">
<path d="M261.02 356L0 196V166L261.02 16L512 166V196L261.02 356Z" fill="#4C6EF5"/>
<path d="M261.02 356L0 196V166L261.02 321L512 166V196L261.02 356Z" fill="#1A2861"/>
</g>
</svg>
