<svg width="512" height="512" viewBox="0 0 512 512" fill="none" xmlns="http://www.w3.org/2000/svg">
<path d="M256.759 220.23C276.901 220.23 293.23 203.587 293.23 183.057C293.23 162.528 276.901 145.885 256.759 145.885C236.616 145.885 220.288 162.528 220.288 183.057C220.288 203.587 236.616 220.23 256.759 220.23Z" fill="#4C6EF5"/>
<path d="M256.058 0C155.124 0 73 78.4601 73 174.864C73 220.774 93.9486 281.828 135.262 356.333C168.442 416.153 206.826 470.246 226.791 497.161C230.165 501.76 234.576 505.5 239.666 508.078C244.757 510.656 250.384 512 256.092 512C261.799 512 267.427 510.656 272.517 508.078C277.608 505.5 282.019 501.76 285.393 497.161C305.323 470.246 343.742 416.153 376.921 356.333C418.166 281.851 439.115 220.797 439.115 174.864C439.115 78.4601 356.991 0 256.058 0ZM256.058 256.01C241.575 256.01 227.418 251.72 215.377 243.682C203.336 235.645 193.95 224.221 188.408 210.856C182.866 197.49 181.416 182.783 184.241 168.594C187.067 154.405 194.041 141.372 204.281 131.142C214.521 120.913 227.569 113.946 241.772 111.124C255.976 108.302 270.699 109.75 284.079 115.286C297.459 120.822 308.894 130.198 316.94 142.226C324.986 154.255 329.281 168.397 329.281 182.864C329.259 202.257 321.538 220.849 307.811 234.562C294.083 248.275 275.471 255.988 256.058 256.01Z" fill="#4C6EF5"/>
</svg>
